# xmcd
#
# Track frame offsets: 
#        150
#        13142
#        28982
#        46192
#        61887
#        75210
#        90162
#        106507
#
# Disc length: 1569 seconds
#
# Revision: 0
# Processed by: cddbd v1.4PL0 Copyright (c) Steve Scherf et al.
# Submitted via: ExactAudioCopy v0.90b3
#
DISCID=4a061f08
DTITLE=Earl Thomas Conley - Treadin' Water
DYEAR=1900
DGENRE=Country
TTITLE0=Too Hot To Handle
TTITLE1=Love Don't Care (Whose Heart It Breaks)
TTITLE2=Labor Of Love
TTITLE3=Your Love Says All There Is
TTITLE4=Chance Of Lovin' You
TTITLE5=Honor Bound
TTITLE6=Feels Like A Saturday Night
TTITLE7=Turn This Bus Around (Bad Bob's)
EXTD=
EXTT0=
EXTT1=
EXTT2=
EXTT3=
EXTT4=
EXTT5=
EXTT6=
EXTT7=
PLAYORDER=
